# xmcd
#
# Track frame offsets:
#	150
#	28988
#	60987
#	92586
#	120801
#	150593
#	163672
#	212104
#	236593
#	256046
#	285999
#
# Disc length: 4252 seconds
#
# Revision: 1
# Processed by: cddbd v1.5.2PL0 Copyright (c) Steve Scherf et al.
# Submitted via: audiograbber 1.83.01
#
DISCID=82109a0b
DTITLE=Billy Branch and the Sons of Blues - Live and Kicking ! at Rosa's Lounge
DYEAR=2009
DGENRE=Blues
TTITLE0=Going Down
TTITLE1=Crazy Mixed Up World
TTITLE2=Good Morning Little School Girl
TTITLE3=Chicken Heads
TTITLE4=Northern Man Blues
TTITLE5=Who's Making Love
TTITLE6=New Kid On The Block
TTITLE7=Windy City
TTITLE8=What's The Matter With The Mill
TTITLE9=Where's My Money
TTITLE10=So Much In Love
EXTD=
EXTT0=
EXTT1=
EXTT2=
EXTT3=
EXTT4=
EXTT5=
EXTT6=
EXTT7=
EXTT8=
EXTT9=
EXTT10=
PLAYORDER=
